<?xml version="1.0" encoding="UTF-8"?>
<svg id="Layer_1" data-name="Layer 1" xmlns="http://www.w3.org/2000/svg" viewBox="0 0 64 38.07">
  <defs>
    <style>
      .cls-1 {
        fill: #2e3191;
        opacity: .7;
      }

      .cls-1, .cls-2, .cls-3, .cls-4, .cls-5, .cls-6, .cls-7, .cls-8 {
        stroke-width: 0px;
      }

      .cls-2, .cls-9 {
        opacity: .5;
      }

      .cls-2, .cls-4 {
        fill: #1e94b1;
      }

      .cls-3 {
        fill: #0aa0cd;
      }

      .cls-3, .cls-4 {
        opacity: .3;
      }

      .cls-5 {
        fill: #93cccd;
      }

      .cls-6 {
        fill: #acd3d0;
      }

      .cls-7 {
        fill: #fff;
      }

      .cls-8 {
        fill: #67b1b6;
      }
    </style>
  </defs>
  <path class="cls-2" d="M35.54,31.64c.55-.51,1.07-1.03,1.56-1.57,3.45-3.82,5.35-8.47,5.35-13.35,0-4.08-1.33-8-3.78-11.41l6.93-2.6s1.68,2.5,2.83,6.07c.09.27.17.55.25.83,1.07,3.78,1.43,8.54-1.26,12.77-3.74,5.89-9.61,8.91-13.03,10.25.4-.32.78-.65,1.15-.99Z"/>
  <path class="cls-2" d="M14.9,9.48c.08-.28.16-.56.25-.83,1.15-3.56,2.83-6.06,2.83-6.06l6.98,2.62c-2.44,3.4-3.76,7.31-3.76,11.39,0,4.96,1.95,9.67,5.5,13.52.49.53,1.01,1.05,1.56,1.54.34.31.7.62,1.07.91-3.39-1.31-9.37-4.34-13.17-10.31-2.69-4.23-2.34-9-1.26-12.78Z"/>
  <path class="cls-7" d="M35.61,33.21c.22,0,.44,0,.67,0h0c.21,0,.42-.01.64-.02.17,0,.34-.02.52-.03.76-.05,1.58-.12,2.44-.24,2.19-.3,4.63-.89,7.07-1.95h0c1.16-.5,2.31-1.12,3.44-1.86-1.04-.08-2.06-.13-3.06-.11-.67.01-1.33.05-1.99.12-.84.09-1.68.23-2.53.44-.39.09-.78.2-1.17.32-1.25.89-2.46,1.6-3.52,2.16-.89.47-1.73.86-2.49,1.17Z"/>
  <path class="cls-4" d="M32.14,34.06s1.96,1.01,4.78,2.01c3.57,1.27,8.53,2.55,12.65,1.77,7.16-1.34,14.05-9.4,14.43-9.85-.19.18-1.91,1.71-6.93.56-1.58-.36-3.1-.58-4.61-.62-.35.3-.72.59-1.12.85-.02.02-.04.03-.06.04-.11.08-.23.15-.34.22-.96.6-1.94,1.11-2.92,1.54h0s-.01,0-.02,0c-3.23,1.41-6.48,1.97-9.21,2.12-.07,0-.14,0-.21.01-.14.06-.28.12-.42.18,0,0-.02,0-.03.01-3.26,1.36-5.41,1.2-5.88,1.15-.06,0-.1-.01-.1-.01Z"/>
  <path class="cls-4" d="M32.24,34.07c.41.2,2.22,1.09,4.7,1.97,2.62.48,5.45.73,7.99.37,2.88-.41,5.51-1.17,7.35-2.78,2.94-2.57,5.27-4.12,5.36-4.18-.06.01-1,.19-4.87-.46-.48-.08-.96-.15-1.43-.22h0c-.11.08-.23.15-.34.22-.96.6-1.94,1.11-2.93,1.54h0s-.07.03-.1.04c-.19.08-.38.16-.57.24-3.03,1.23-6.05,1.74-8.61,1.89-.07,0-.14,0-.21.01-.14.06-.28.12-.42.18,0,0-.02,0-.03.01-3.26,1.36-5.41,1.2-5.88,1.15Z"/>
  <path class="cls-6" d="M38.11,32.92c1.81.62,4.48,1.34,6.71,1.15,3.63-.3,7.21-3.14,7.44-3.33-.11.07-1.01.59-3.52,0-.25-.06-.5-.11-.75-.16,0,0-.02,0-.03,0,0,0,0,0,0,0h0c-.19.08-.38.16-.57.24-3.03,1.23-6.05,1.74-8.61,1.89-.07,0-.14,0-.21.01-.14.06-.28.12-.42.18,0,0-.02,0-.03.01Z"/>
  <path class="cls-4" d="M31.86,34.06s-1.96,1.01-4.78,2.01c-3.57,1.27-8.53,2.55-12.65,1.77C7.27,36.49.38,28.44,0,27.99c.19.18,1.91,1.71,6.93.56,1.58-.36,3.1-.58,4.61-.62.35.3.72.59,1.12.85.02.02.04.03.06.04.11.08.23.15.34.22.96.6,1.94,1.11,2.92,1.54h0s.01,0,.02,0c3.23,1.41,6.48,1.97,9.21,2.12.07,0,.14,0,.21.01.14.06.28.12.42.18,0,0,.02,0,.03.01,3.26,1.36,5.41,1.2,5.88,1.15.06,0,.1-.01.1-.01Z"/>
  <path class="cls-4" d="M31.76,34.07c-.41.2-2.22,1.09-4.7,1.97-2.62.48-5.45.73-7.99.37-2.88-.41-5.51-1.17-7.35-2.78-2.94-2.57-5.27-4.12-5.36-4.18.06.01,1,.19,4.87-.46.48-.08.96-.15,1.43-.22h0c.11.08.23.15.34.22.96.6,1.94,1.11,2.93,1.54h0s.07.03.1.04c.19.08.38.16.57.24,3.03,1.23,6.05,1.74,8.61,1.89.07,0,.14,0,.21.01.14.06.28.12.42.18,0,0,.02,0,.03.01,3.26,1.36,5.41,1.2,5.88,1.15Z"/>
  <path class="cls-6" d="M25.89,32.92c-1.81.62-4.48,1.34-6.71,1.15-3.63-.3-7.21-3.14-7.44-3.33.11.07,1.01.59,3.52,0,.25-.06.5-.11.75-.16,0,0,.02,0,.03,0,0,0,0,0,0,0h0c.19.08.38.16.57.24,3.03,1.23,6.05,1.74,8.61,1.89.07,0,.14,0,.21.01.14.06.28.12.42.18,0,0,.02,0,.03.01Z"/>
  <path class="cls-5" d="M34.69,31.28c-.56.54-1.08,1-1.51,1.36.13-.04.26-.08.4-.12.61-.47,1.19-.97,1.75-1.48,4.07-3.8,6.54-8.77,6.54-14.22,0-4.06-1.37-7.86-3.76-11.11l-1.12.42s5.45,4.01,4.66,12.59c-.5,5.44-4.27,9.97-6.96,12.56Z"/>
  <path class="cls-8" d="M25.94,5.7h.01c.16-.22.33-.44.51-.66,1.52-1.91,3.41-3.62,5.57-5.05,2.16,1.42,4.04,3.12,5.56,5.03.18.22.35.45.52.68,2.39,3.25,3.76,7.04,3.76,11.11,0,5.45-2.47,10.42-6.54,14.22-.55.52-1.14,1.01-1.75,1.48-.25.19-.51.38-.77.57-.16.11-.32.23-.48.34-.08.06-.16.11-.24.16h0s-.03.02-.04.03c0,0,0,0-.02-.01,0,0-.02-.01-.03-.02-.05-.04-.12-.09-.22-.16-.05-.04-1.21-.83-1.31-.9-.71-.48-1.19-.97-1.75-1.48-4.07-3.8-6.54-8.77-6.54-14.22,0-4.06,1.37-7.86,3.76-11.11Z"/>
  <g class="cls-9">
    <path class="cls-8" d="M44.25,7.87h-.01c-.11-.25-.22-.51-.34-.76-1.05-2.21-2.5-4.29-4.29-6.18-2.42.9-4.64,2.13-6.55,3.64-.22.18-.44.36-.66.54-3.06,2.62-5.25,6.01-6.17,9.97-1.23,5.31.05,10.71,3.16,15.33.42.63.88,1.24,1.37,1.84.2.25.41.49.62.73.13.15.26.29.4.44.07.07.13.14.2.22h0s.02.02.03.03c0,0,.01,0,.02,0,.01,0,.02-.01.04-.02.06-.02.14-.06.25-.11.06-.03,1.37-.54,1.48-.58.8-.31,1.38-.67,2.04-1.05,4.83-2.78,8.36-7.07,9.59-12.37.92-3.96.44-7.97-1.15-11.67Z"/>
  </g>
  <g class="cls-9">
    <path class="cls-8" d="M19.8,7.87h.01c.11-.25.22-.51.34-.76,1.05-2.21,2.5-4.29,4.29-6.18,2.42.9,4.64,2.13,6.55,3.64.22.18.44.36.66.54,3.06,2.62,5.25,6.01,6.17,9.97,1.23,5.31-.05,10.71-3.16,15.33-.42.63-.88,1.24-1.37,1.84-.2.25-.41.49-.62.73-.13.15-.26.29-.4.44-.07.07-.13.14-.2.22h0s-.02.02-.03.03c0,0-.01,0-.02,0-.01,0-.02-.01-.04-.02-.06-.02-.14-.06-.25-.11-.06-.03-1.37-.54-1.48-.58-.8-.31-1.38-.67-2.04-1.05-4.83-2.78-8.36-7.07-9.59-12.37-.92-3.96-.44-7.97,1.15-11.67Z"/>
  </g>
  <path class="cls-3" d="M39.34,31.78c-.94.36-1.83.64-2.61.86,3.74.46,9.83.52,15.57-2.47,9.15-4.77,8.27-17.94,8.27-17.94l-6.91-1.15c.31,2.15.31,4.19,0,6.07-.43,2.6-1.45,4.9-3.04,6.83-3.5,4.25-8.07,6.59-11.29,7.8Z"/>
  <path class="cls-3" d="M25.31,31.87c.94.36,1.83.64,2.61.86-3.74.46-9.83.52-15.57-2.47C3.2,25.49,4.08,12.32,4.08,12.32l6.91-1.15c-.31,2.15-.31,4.19,0,6.07.43,2.6,1.45,4.9,3.04,6.83,3.5,4.25,8.07,6.59,11.29,7.8Z"/>
  <path class="cls-1" d="M36.73,32.64c.91-.04,1.9-.12,2.96-.27,2.19-.3,4.63-.89,7.07-1.95h0c1.16-.5,2.31-1.12,3.44-1.86.13-.08.25-.17.38-.26.28-.19.55-.4.81-.61,4.55-3.69,5.5-9.58,5.54-13.66-.02-2.37-.34-4-.34-4l-6.85-.29h-.15c.48,1.75.73,3.46.76,5.09,0,.31,0,.62-.01.93-.1,2.64-.84,5.04-2.18,7.15-1.6,2.52-3.59,4.53-5.56,6.09-1.66,1.31-3.3,2.31-4.69,3.04-.37.19-.72.37-1.07.53h0s-.08.04-.12.05Z"/>
  <path class="cls-1" d="M12.69,28.37c5.39,3.71,11.51,4.37,15.28,4.36-.75-.32-1.59-.7-2.49-1.17-3.04-1.6-7.3-4.48-10.25-9.13-1.34-2.11-2.07-4.52-2.18-7.15-.07-1.9.18-3.93.75-6.03l-7.12.3s-2.48,12.96,6.01,18.82Z"/>
</svg>