<?xml version="1.0" encoding="UTF-8"?>
<svg id="Layer_1" data-name="Layer 1" xmlns="http://www.w3.org/2000/svg" viewBox="0 0 64 63.99">
  <defs>
    <style>
      .cls-1 {
        fill: #67b1b6;
        stroke-width: 0px;
      }
    </style>
  </defs>
  <path class="cls-1" d="M32.01,63.99C14.81,64,0,50.28,0,31.98,0,13.97,14.47,0,31.99,0c17.54,0,32.02,13.98,32.01,32.01-.01,18.3-14.82,31.98-31.99,31.98ZM29.74,63.28s.01-.09.02-.14c-.29-.05-.59-.1-.88-.16-8.04-1.65-13.42-9.14-12.41-17.3.95-7.73,7.55-13.62,15.34-13.69.88,0,1.77-.05,2.63-.19,9.04-1.46,14.86-10.15,12.79-19.08-1.47-6.35-6.92-11.2-13.42-11.91-2.74-.3-5.46-.02-8.15.53C8.36,4.91-2.61,22.18,1.55,39.33c2.85,11.76,12.23,20.86,24.04,23.3,1.37.28,2.76.43,4.15.65Z"/>
</svg>